<?xml version="1.0" encoding="utf-8"?>
<!-- Generator: Adobe Illustrator 15.1.0, SVG Export Plug-In . SVG Version: 6.00 Build 0)  -->
<!DOCTYPE svg PUBLIC "-//W3C//DTD SVG 1.1//EN" "http://www.w3.org/Graphics/SVG/1.1/DTD/svg11.dtd">
<svg version="1.1" id="レイヤー_1" xmlns="http://www.w3.org/2000/svg" xmlns:xlink="http://www.w3.org/1999/xlink" x="0px"
	 y="0px" width="57.4775391px" height="131.578125px" viewBox="0 0 57.4775391 131.578125"
	 style="enable-background:new 0 0 57.4775391 131.578125;" xml:space="preserve">
<style type="text/css">
<![CDATA[
	.st0{fill:#FFFFFF;}
]]>
</style>
<g>
	<path class="st0" d="M28.3789063,35.8789063l6.5400391,4.859375c-0.3603516,0.4804688-1.2001953,1.0800781-2.3398438,1.2607422
		v12.0595703c-0.0605469,0.359375-3.4199219,1.5-5.5195313,1.5h-1.0800781v-3.6601563H15.2998047v2.6992188
		c0,0.4208984-1.9199219,1.8007813-5.1601563,1.8007813H9.0595703v-10.5
		c-1.7392578,3.2402344-4.2597656,6.2998047-7.9189453,8.8798828l-0.6005859-0.6005859c5.5205078-8.21875,6-18.4785156,6-26.7587891
		v-9.1191406c-1.9199219,1.3798828-3.9599609,2.5800781-6.0595703,3.6591797L0,21.4199219
		C6.1796875,15.6601563,11.3994141,6.4199219,13.5,0l9.7197266,1.9804688
		c-0.2402344,0.7197266-0.7802734,1.0800781-2.3398438,1.3193359c20.5185547,3.7207031,13.3789063,15.9599609,7.9189453,11.8798828
		c-0.9599609-3.4199219-4.0195313-7.9794922-8.5195313-11.2792969c-2.0400391,3.1796875-4.7392578,6.5390625-7.9794922,9.6591797
		H19.5l2.9990234-3.8398438c0,0,3.4804688,2.6396484,5.5800781,4.5595703
		c-0.1796875,0.6601563-0.7802734,0.9609375-1.6201172,0.9609375H11.7001953l-0.2402344-0.9003906
		c-1.1396484,1.0195313-2.3398438,2.0400391-3.5400391,2.9394531l6,2.2207031h10.9189453l3.0605469-3.3603516L34.4384766,21
		c-0.359375,0.4794922-1.2597656,1.0195313-2.4599609,1.3193359v11.9394531
		c-0.0595703,0.3603516-3.359375,1.5605469-5.4589844,1.5605469h-1.0800781v-1.8007813H12.5400391
		C12.4199219,35.21875,12.2402344,36.4189453,12,37.6787109l4.0800781,1.5595703h9.2988281L28.3789063,35.8789063z
		 M25.4394531,32.3388672v-4.6796875H12.8994141c0,1.4404297-0.0595703,3-0.1796875,4.6796875H25.4394531z M12.8994141,21.1796875
		v4.7998047h12.5400391v-4.7998047H12.8994141z M25.9794922,50.1582031v-9.2392578H15.2998047v9.2392578H25.9794922z
		 M43.2587891,41.7587891c0,0.6601563-2.6396484,1.859375-4.9199219,1.859375h-1.1396484V5.2197266L45.2988281,6
		c-0.1201172,0.7802734-0.6005859,1.3203125-2.0400391,1.5605469V41.7587891z M56.7578125,2.1005859
		C56.578125,3,55.9785156,3.6005859,54.5380859,3.7802734v44.8183594c0,4.6796875-0.9599609,7.3193359-8.4599609,8.0390625
		c-0.1796875-2.0996094-0.4794922-3.6591797-1.3798828-4.7392578c-0.9599609-1.0205078-2.2197266-1.7998047-5.0996094-2.2197266
		v-0.8408203c0,0,5.9394531,0.3603516,7.2001953,0.3603516c0.9599609,0,1.2597656-0.2998047,1.2597656-1.0800781V1.2001953
		L56.7578125,2.1005859z"/>
	<path class="st0" d="M17.4599609,94.0800781c-0.1806641,0.5390625-0.7207031,0.9589844-1.8603516,1.1992188v34.2587891
		c-0.1201172,0.5400391-3,2.0400391-5.7597656,2.0400391H8.5195313v-31.3789063
		c-2.3994141,2.7597656-4.9794922,5.1601563-7.7392578,7.2001953l-0.7197266-0.5400391
		c5.3398438-7.5,10.9189453-19.6796875,13.9189453-31.6787109l9.5400391,3.1796875
		c-0.2998047,0.7802734-1.0800781,1.2597656-2.4003906,1.2001953c-2.0400391,4.859375-4.3798828,9.2988281-6.9589844,13.3193359
		L17.4599609,94.0800781z M39.9589844,89.7597656v11.0996094h4.7998047l3.6591797-4.7998047
		c0,0,4.140625,3.2998047,6.7197266,5.5800781c-0.1796875,0.6591797-0.8398438,0.9599609-1.6796875,0.9599609H39.9589844v11.3388672
		h5.1591797l4.0205078-5.2197266c0,0,4.4394531,3.5400391,7.1992188,5.9404297
		c-0.1796875,0.6591797-0.8398438,0.9599609-1.7402344,0.9599609H39.9589844v14.0390625
		c0,0.4199219-2.2207031,1.859375-5.9404297,1.859375h-1.3193359V89.7597656h-1.4404297
		c-3.8994141,5.8798828-8.3994141,10.6796875-13.4394531,14.2792969l-0.6601563-0.4794922
		c4.6201172-6.7802734,9.6601563-17.6992188,12.3603516-28.3193359l9.6591797,3.4199219
		c-0.2998047,0.7802734-1.0800781,1.2597656-2.4599609,1.1396484c-1.3798828,2.9404297-2.8203125,5.7597656-4.4394531,8.3398438
		h14.0996094l3.9589844-5.1591797c0,0,4.4404297,3.4794922,7.1396484,5.8193359
		c-0.1796875,0.6601563-0.8398438,0.9599609-1.6796875,0.9599609H39.9589844z"/>
</g>
</svg>
